<svg width="46" height="46" viewBox="0 0 46 46" fill="none" xmlns="http://www.w3.org/2000/svg">
<path d="M43.9213 20.2062L25.7938 2.07873C25.025 1.30623 24.0125 0.919983 23 0.919983C21.9875 0.919983 20.975 1.30623 20.2063 2.07873L16.6213 5.66373L21.0575 10.1C22.5313 9.23373 24.4513 9.42123 25.715 10.685C26.9788 11.9487 27.1625 13.8687 26.2963 15.3387L30.6575 19.7C32.1313 18.8337 34.0513 19.0212 35.315 20.285C36.815 21.785 36.815 24.215 35.315 25.715C33.815 27.215 31.385 27.215 29.885 25.715C28.6213 24.4512 28.4338 22.5312 29.3 21.0575L24.9388 16.6962C24.6275 16.88 24.3013 17.015 23.96 17.1012V28.895C25.6138 29.3225 26.84 30.8112 26.84 32.6C26.84 34.7225 25.1225 36.44 23 36.44C20.8775 36.44 19.16 34.7225 19.16 32.6C19.16 30.8112 20.3863 29.3225 22.04 28.895V17.1012C21.3988 16.9362 20.7875 16.6175 20.285 16.115C19.0213 14.8512 18.8375 12.9312 19.7038 11.4612L15.2638 7.02123L2.07876 20.2062C0.533763 21.7475 0.533763 24.2525 2.07876 25.7937L20.2063 43.9212C20.975 44.6937 21.9875 45.08 23 45.08C24.0125 45.08 25.025 44.6937 25.7938 43.9212L43.9213 25.7937C45.4663 24.2525 45.4663 21.7475 43.9213 20.2062Z" fill="#202020"/>
</svg>
