<svg width="28" height="26" viewBox="0 0 28 26" fill="none" xmlns="http://www.w3.org/2000/svg">
<path d="M27.2254 14.4837L25.8297 10.1837C25.8223 10.1441 25.811 10.1053 25.7959 10.068L22.9959 1.42541C22.9213 1.20243 22.7784 1.00878 22.5875 0.872091C22.3966 0.735404 22.1676 0.662668 21.933 0.664264C21.6992 0.662842 21.471 0.736595 21.2819 0.874709C21.0929 1.01282 20.953 1.20803 20.8827 1.43171L18.2138 9.66734H9.79013L7.11726 1.43171C7.0472 1.2088 6.908 1.01415 6.71993 0.876113C6.53185 0.738072 6.30474 0.663851 6.07166 0.664264H6.06538C5.83062 0.664305 5.60184 0.738566 5.41158 0.876487C5.22133 1.01441 5.07929 1.20896 5.00565 1.43249L2.20327 10.0853C2.20327 10.0932 2.19699 10.0995 2.19463 10.1073L0.773812 14.4845C0.669408 14.8055 0.669161 15.1515 0.773106 15.4726C0.877052 15.7938 1.07984 16.0737 1.35234 16.2721L13.6279 25.2161C13.7359 25.2945 13.8661 25.3364 13.9995 25.3357C14.1328 25.335 14.2625 25.2917 14.3697 25.2122L26.6476 16.2721C26.9203 16.0736 27.1231 15.7936 27.2269 15.4722C27.3307 15.1509 27.3302 14.8048 27.2254 14.4837ZM8.87641 10.9315L12.2981 21.4915L4.08408 10.9315H8.87641ZM15.7058 21.4938L18.987 11.3699L19.1283 10.9315H23.9245L16.4931 20.4776L15.7058 21.4938ZM21.944 2.24244L24.3484 9.66734H19.5357L21.944 2.24244ZM17.8064 10.9267L15.4224 18.2832L14 22.6643L10.1991 10.9267H17.8064ZM6.05989 2.24244L8.469 9.66734H3.65941L6.05989 2.24244ZM2.09101 15.2535C2.03311 15.2113 1.99006 15.1517 1.96805 15.0834C1.94605 15.0151 1.94622 14.9416 1.96856 14.8733L3.02357 11.6225L10.7612 21.5694L2.09101 15.2535ZM25.9097 15.2535L17.2388 21.567L17.2679 21.5292L24.9764 11.6225L26.0314 14.8718C26.054 14.94 26.0544 15.0137 26.0325 15.0822C26.0107 15.1506 25.9677 15.2104 25.9097 15.2527V15.2535Z" fill="white"/>
</svg>
