<svg width="53" height="59" viewBox="0 0 53 59" fill="none" xmlns="http://www.w3.org/2000/svg">
<path d="M52.0445 0.928535C51.8083 0.667676 51.4687 0.52002 51.1143 0.52002H1.88571C1.53134 0.52002 1.19173 0.667676 0.955478 0.928535C0.714306 1.18939 0.596181 1.53885 0.630634 1.89322L5.06524 51.5697C5.10954 52.0914 5.47376 52.5246 5.97579 52.6722L26.1506 58.4308C26.2588 58.4653 26.377 58.48 26.4951 58.48C26.6132 58.48 26.7264 58.4653 26.8396 58.4308L47.0291 52.6722C47.5312 52.5246 47.8905 52.0914 47.9397 51.5697L52.3694 1.89322C52.4038 1.53885 52.2857 1.18939 52.0445 0.928535ZM41.4281 18.0567H17.7243L18.2903 24.4699H40.8571L39.164 43.424L26.4902 47.2532L26.3671 47.2139L13.8409 43.4191L13.1568 35.6967H19.2944L19.5602 38.6941L26.564 40.1608L33.4399 38.6941L34.1732 30.5828H12.6991L11.0306 11.9289H41.9744L41.4281 18.0567Z" fill="#202020"/>
</svg>
