<svg width="52" height="52" viewBox="0 0 52 52" fill="none" xmlns="http://www.w3.org/2000/svg">
<path d="M48.0031 0.799988H4.00157C2.23438 0.799988 0.800003 2.23436 0.800003 4.00155V47.9984C0.800003 49.7656 2.23438 51.2 4.00157 51.2H47.9984C49.7656 51.2 51.2 49.7656 51.2 48.0031V4.00155C51.2 2.23436 49.7656 0.799988 48.0031 0.799988ZM28.4 39.4203C28.4 44.2156 25.5875 46.4 21.4813 46.4C17.7688 46.4 15.0922 43.9109 14 41.6L17.7734 39.3172C18.5 40.6062 19.6063 41.6 21.2 41.6C22.7234 41.6 23.6 41.0047 23.6 38.6891V23.6H28.4V39.4203ZM38.8109 46.4C34.5594 46.4 32.1453 44.2578 30.8 41.6L34.4 39.2C35.3797 40.8031 36.4484 42.3359 38.7078 42.3359C40.6063 42.3359 41.6 41.3891 41.6 40.0766C41.6 38.5109 40.5688 37.9531 38.4828 37.0391L37.3391 36.5469C34.0344 35.1406 31.8359 33.3781 31.8359 29.6469C31.8359 26.2156 34.4563 23.6 38.5438 23.6C41.4547 23.6 43.5453 24.6125 45.0547 27.2656L41.4922 29.5578C40.7047 28.1469 39.8609 27.5937 38.5438 27.5937C37.2031 27.5937 36.3547 28.4469 36.3547 29.5578C36.3547 30.9312 37.2031 31.4844 39.1672 32.3375L40.3109 32.8297C44.2063 34.4937 46.4 36.1953 46.4 40.0203C46.4 44.1406 43.1609 46.4 38.8109 46.4Z" fill="#202020"/>
</svg>
