<svg width="23" height="22" viewBox="0 0 23 22" fill="none" xmlns="http://www.w3.org/2000/svg">
<path d="M3 0.505859C2.1563 0.505859 1.41774 0.745816 0.876953 1.18262C0.336167 1.61942 0.00585938 2.26661 0.00585938 2.97363C0.00585938 4.34542 1.23435 5.40723 2.8584 5.4707C2.90421 5.48537 2.95191 5.49326 3 5.49414C3.87678 5.49414 4.6231 5.23713 5.15625 4.78223C5.6894 4.32732 5.99414 3.67147 5.99414 2.97363C5.99407 2.96451 5.99374 2.95539 5.99316 2.94629C5.91615 1.56584 4.68739 0.505859 3 0.505859ZM3 1.49414C4.30453 1.49414 4.94794 2.13467 5.00293 2.98633C4.99938 3.40247 4.83828 3.75595 4.51562 4.03125C4.1894 4.30959 3.68572 4.50586 3 4.50586C1.69903 4.50586 0.994141 3.79959 0.994141 2.97363C0.994141 2.56066 1.16383 2.22112 1.49805 1.95117C1.83226 1.68122 2.3437 1.49414 3 1.49414ZM0.5 6.5C0.367396 6.50001 0.240227 6.5527 0.146461 6.64646C0.0526959 6.74023 1.32584e-05 6.8674 0 7V21.5C1.32584e-05 21.6326 0.0526959 21.7598 0.146461 21.8535C0.240227 21.9473 0.367396 22 0.5 22H5.5C5.6326 22 5.75977 21.9473 5.85354 21.8535C5.9473 21.7598 5.99999 21.6326 6 21.5V16.832V7C5.99999 6.8674 5.9473 6.74023 5.85354 6.64646C5.75977 6.5527 5.6326 6.50001 5.5 6.5H0.5ZM8 6.5C7.8674 6.50001 7.74023 6.5527 7.64646 6.64646C7.5527 6.74023 7.50001 6.8674 7.5 7V21.5C7.50001 21.6326 7.5527 21.7598 7.64646 21.8535C7.74023 21.9473 7.8674 22 8 22H13C13.1326 22 13.2598 21.9473 13.3535 21.8535C13.4473 21.7598 13.5 21.6326 13.5 21.5V13.5V13.375V13.25C13.5 12.2778 14.2778 11.5 15.25 11.5C16.2222 11.5 17 12.2778 17 13.25V21.5C17 21.6326 17.0527 21.7598 17.1465 21.8535C17.2402 21.9473 17.3674 22 17.5 22H22.5C22.6326 22 22.7598 21.9473 22.8535 21.8535C22.9473 21.7598 23 21.6326 23 21.5V13C23 10.9367 22.3939 9.30223 21.3721 8.1875C20.3502 7.07277 18.9246 6.5 17.3936 6.5C15.4414 6.5 14.2608 7.21304 13.5 7.80078V7C13.5 6.8674 13.4473 6.74023 13.3535 6.64646C13.2598 6.5527 13.1326 6.50001 13 6.5H8ZM1 7.5H5V16.832V21H1V7.5ZM8.5 7.5H12.5V8.81934C12.5 8.92051 12.5308 9.01929 12.5881 9.10263C12.6454 9.18598 12.7267 9.24997 12.8212 9.28615C12.9157 9.32234 13.0189 9.32901 13.1173 9.30529C13.2156 9.28158 13.3045 9.22859 13.3721 9.15332C13.3721 9.15332 14.8549 7.5 17.3936 7.5C18.68 7.5 19.8078 7.96113 20.6348 8.86328C21.4618 9.76543 22 11.1308 22 13V21H18V13.25C18.0006 13.1794 17.9863 13.1096 17.958 13.0449C17.847 11.6321 16.6902 10.5 15.25 10.5C13.7372 10.5 12.5 11.7372 12.5 13.25V13.375V13.5V21H8.5V7.5Z" fill="#EBEBEB"/>
</svg>
