<svg width="101" height="275" viewBox="0 0 101 275" fill="none" xmlns="http://www.w3.org/2000/svg">
<path d="M3.57328 251.711C7.77176 262.276 13.8627 270.144 25.0849 270.144L49.1797 270.144C55.1953 270.144 60.0719 265.265 60.0719 259.247C60.0719 253.228 55.1953 248.349 49.1797 248.349L32.774 248.349C31.1132 248.349 29.5185 247.586 28.6636 246.161C27.9576 244.985 27.3442 243.747 26.8322 242.459C24.7147 237.13 24.4553 231.243 26.0959 225.749C27.7365 220.255 31.1812 215.475 35.8732 212.182C40.5651 208.889 46.23 207.276 51.952 207.603C57.6739 207.929 63.1184 210.178 67.4052 213.984C71.692 217.789 74.5705 222.931 75.5754 228.576C76.5802 234.221 75.6527 240.04 72.9427 245.093C72.2262 246.429 71.3961 247.691 70.4654 248.866C66.1737 254.287 62.8724 261.562 65.6245 267.905C68.3765 274.249 75.885 277.266 81.3565 273.04C86.9499 268.721 91.6128 263.245 94.9978 256.934C100.371 246.916 102.21 235.378 100.218 224.185C98.2253 212.992 92.518 202.799 84.0184 195.253C75.5188 187.706 64.7239 183.249 53.3789 182.601C42.0338 181.953 30.8019 185.152 21.4991 191.681C12.1962 198.21 5.36618 207.687 2.11329 218.581C-1.13959 229.474 -0.625216 241.147 3.57328 251.711Z" fill="#202020"/>
<path d="M15.2935 94.8958C20.2487 90.0747 28.0516 92.217 31.5075 98.2059C34.9634 104.195 32.5112 111.798 28.8641 117.672C28.0732 118.946 27.3921 120.294 26.8322 121.703C24.7147 127.031 24.4553 132.919 26.0959 138.413C27.7365 143.907 31.1812 148.687 35.8732 151.98C40.5651 155.273 46.23 156.886 51.952 156.559C57.6739 156.232 63.1184 153.984 67.4052 150.178C71.692 146.372 74.5705 141.231 75.5754 135.586C76.5802 129.941 75.6527 124.121 72.9427 119.069C72.2262 117.733 71.3961 116.471 70.4654 115.296C66.1737 109.875 62.8724 102.6 65.6244 96.2568C68.3765 89.9133 75.885 86.8963 81.3565 91.1217C86.9499 95.4414 91.6128 100.917 94.9978 107.228C100.371 117.245 102.21 128.784 100.218 139.977C98.2253 151.17 92.518 161.363 84.0184 168.909C75.5188 176.455 64.7239 180.913 53.3789 181.561C42.0338 182.209 30.8019 179.01 21.4991 172.481C12.1962 165.952 5.36618 156.475 2.11329 145.581C-1.1396 134.688 -0.625221 123.015 3.57328 112.451C6.21821 105.795 10.2279 99.8244 15.2935 94.8958Z" fill="#202020"/>
<path d="M15.2935 5.73398C20.2487 0.912871 28.0516 3.05517 31.5075 9.044C34.9634 15.0328 32.5112 22.6362 28.8641 28.5105C28.0732 29.7843 27.3921 31.1323 26.8322 32.5412C24.7147 37.8696 24.4552 43.7567 26.0959 49.2509C27.7365 54.745 31.1812 59.5249 35.8732 62.8179C40.5651 66.1109 46.23 67.7243 51.9519 67.3974C57.6739 67.0705 63.1184 64.8224 67.4052 61.0165C71.692 57.2106 74.5705 52.0694 75.5754 46.4241C76.5802 40.7789 75.6527 34.9595 72.9427 29.9069C72.2262 28.571 71.3961 27.3093 70.4654 26.1338C66.1737 20.7131 62.8723 13.4384 65.6244 7.09494C68.3765 0.751462 75.885 -2.26557 81.3565 1.95987C86.9499 6.27951 91.6128 11.7548 94.9978 18.0658C100.371 28.0836 102.21 39.6218 100.218 50.8148C98.2253 62.0079 92.518 72.2015 84.0184 79.7475C75.5188 87.2936 64.7239 91.751 53.3789 92.3991C42.0338 93.0473 30.8019 89.8482 21.499 83.3192C12.1962 76.7902 5.36617 67.3128 2.11329 56.4194C-1.1396 45.5261 -0.625225 33.8534 3.57327 23.2887C6.21821 16.6333 10.2279 10.6626 15.2935 5.73398Z" fill="#202020"/>
<path d="M63.5455 120.922C61.0849 117.95 58.7516 114.561 58.7516 110.702L58.7516 102.058C58.7516 97.4985 55.0572 93.8023 50.5 93.8023C45.9427 93.8023 42.2483 97.4985 42.2483 102.058L42.2483 111.41C42.2483 115.094 40.1139 118.364 37.8402 121.263C35.6392 124.068 34.3268 127.605 34.3268 131.448C34.3268 140.567 41.7155 147.96 50.83 147.96C59.9445 147.96 67.3333 140.567 67.3333 131.448C67.3333 127.448 65.9113 123.78 63.5455 120.922Z" fill="#202020"/>
</svg>
