<svg width="831" height="306" viewBox="0 0 831 306" fill="none" xmlns="http://www.w3.org/2000/svg">
<path d="M70.3743 10.826C38.4498 23.5461 14.6724 42 14.6724 75.9999L14.6724 149C14.6724 167.225 29.416 182 47.6029 182C65.7898 182 80.5333 167.225 80.5333 149L80.5333 99.2954C80.5333 94.2637 82.8413 89.4323 87.1459 86.8422C90.7009 84.7033 94.4403 82.8449 98.3336 81.2936C114.435 74.8782 132.225 74.0922 148.827 79.0627C165.429 84.0333 179.873 94.4699 189.824 108.685C199.775 122.9 204.65 140.063 203.663 157.399C202.675 174.735 195.881 191.23 184.381 204.218C172.88 217.205 157.344 225.927 140.285 228.971C123.226 232.015 105.641 229.205 90.3734 220.995C86.3363 218.824 82.5238 216.309 78.9717 213.489C62.5912 200.487 40.6084 190.485 21.4396 198.823C2.27079 207.161 -6.84618 229.909 5.92237 246.486C18.9755 263.432 35.5207 277.56 54.5914 287.815C84.8636 304.094 119.73 309.666 153.553 303.63C187.376 297.593 218.18 280.302 240.982 254.551C263.785 228.8 277.255 196.094 279.213 161.722C281.172 127.35 271.505 93.3207 251.775 65.1357C232.046 36.9508 203.407 16.2579 170.489 6.40265C137.571 -3.45262 102.299 -1.89421 70.3743 10.826Z" fill="#C6C6C6" fill-opacity="0.25"/>
<path d="M544.242 46.3347C558.811 61.3474 552.337 84.988 534.24 95.4584C516.143 105.929 493.167 98.4993 475.416 87.4498C471.566 85.0536 467.493 82.99 463.236 81.2936C447.134 74.8782 429.344 74.0922 412.742 79.0627C396.14 84.0333 381.696 94.4699 371.745 108.685C361.794 122.9 356.919 140.063 357.906 157.399C358.894 174.735 365.688 191.23 377.188 204.218C388.689 217.205 404.225 225.927 421.284 228.971C438.343 232.015 455.928 229.205 471.196 220.995C475.233 218.824 479.045 216.309 482.597 213.489C498.978 200.487 520.961 190.485 540.129 198.823C559.298 207.161 568.415 229.909 555.647 246.486C542.594 263.432 526.048 277.56 506.978 287.815C476.705 304.094 441.839 309.666 408.016 303.63C374.193 297.593 343.389 280.302 320.587 254.551C297.784 228.8 284.314 196.094 282.356 161.722C280.397 127.35 290.064 93.3207 309.794 65.1357C329.523 36.9508 358.162 16.2579 391.08 6.40265C423.998 -3.45262 459.27 -1.89421 491.195 10.826C511.306 18.8393 529.349 30.9874 544.242 46.3347Z" fill="#C6C6C6" fill-opacity="0.25"/>
<path d="M813.673 46.3347C828.242 61.3474 821.768 84.988 803.671 95.4584C785.574 105.929 762.598 98.4993 744.847 87.4498C740.997 85.0536 736.924 82.99 732.666 81.2936C716.565 74.8782 698.775 74.0922 682.173 79.0627C665.571 84.0333 651.126 94.4699 641.176 108.685C631.225 122.9 626.349 140.063 627.337 157.399C628.325 174.735 635.118 191.23 646.619 204.218C658.12 217.205 673.656 225.927 690.715 228.971C707.774 232.015 725.359 229.205 740.627 220.995C744.664 218.824 748.476 216.309 752.028 213.489C768.409 200.487 790.392 190.485 809.56 198.823C828.729 207.161 837.846 229.909 825.078 246.486C812.024 263.432 795.479 277.56 776.409 287.815C746.136 304.094 711.27 309.666 677.447 303.63C643.624 297.593 612.82 280.302 590.018 254.551C567.215 228.8 553.745 196.094 551.787 161.722C549.828 127.35 559.495 93.3207 579.225 65.1357C598.954 36.9508 627.593 16.2579 660.511 6.40265C693.428 -3.45262 728.701 -1.89421 760.626 10.826C780.737 18.8393 798.78 30.9874 813.673 46.3347Z" fill="#C6C6C6" fill-opacity="0.25"/>
<path d="M465.595 192.524C474.576 185.069 484.818 178 496.48 178H522.599C536.377 178 547.547 166.807 547.547 153C547.547 139.193 536.377 128 522.599 128H494.34C483.206 128 473.325 121.533 464.566 114.645C456.088 107.976 445.401 104 433.787 104C406.231 104 383.892 126.386 383.892 154C383.892 181.614 406.231 204 433.787 204C445.876 204 456.96 199.692 465.595 192.524Z" fill="#C6C6C6" fill-opacity="0.25"/>
</svg>
